<svg width="200" height="60" viewBox="0 0 200 60" xmlns="http://www.w3.org/2000/svg" fill="white" style="background:#0c0f14">
  <rect x="0" y="0" width="200" height="60" fill="#0c0f14"/>
  
  <!-- B -->
  <rect x="5" y="5" width="6" height="50"/>
  <rect x="11" y="5" width="10" height="10"/>
  <rect x="11" y="25" width="10" height="10"/>
  <rect x="11" y="45" width="10" height="10"/>

  <!-- y -->
  <rect x="25" y="25" width="6" height="30"/>
  <rect x="31" y="25" width="6" height="10"/>
  <rect x="31" y="45" width="6" height="10"/>

  <!-- b -->
  <rect x="45" y="5" width="6" height="50"/>
  <rect x="51" y="25" width="10" height="10"/>
  <rect x="51" y="45" width="10" height="10"/>

  <!-- i -->
  <rect x="65" y="5" width="6" height="6"/>
  <rect x="65" y="25" width="6" height="30"/>

  <!-- t -->
  <rect x="75" y="5" width="6" height="20"/>
  <rect x="70" y="15" width="16" height="6"/>
  <rect x="81" y="25" width="6" height="30"/>

  <!-- B -->
  <rect x="95" y="5" width="6" height="50"/>
  <rect x="101" y="5" width="10" height="10"/>
  <rect x="101" y="25" width="10" height="10"/>
  <rect x="101" y="45" width="10" height="10"/>

  <!-- o -->
  <rect x="115" y="25" width="6" height="30"/>
  <rect x="121" y="25" width="10" height="10"/>
  <rect x="121" y="45" width="10" height="10"/>

  <!-- t -->
  <rect x="135" y="5" width="6" height="20"/>
  <rect x="130" y="15" width="16" height="6"/>
  <rect x="141" y="25" width="6" height="30"/>
</svg>

